<svg width="230" height="363" viewBox="0 0 230 363" fill="none" xmlns="http://www.w3.org/2000/svg">
<g clip-path="url(#clip0_268_633)">
<path d="M218.325 304.623L221.362 363C221.362 363 92.9092 240.594 76.9062 204.779C60.9033 168.964 91.0265 80.37 91.0265 80.37L157.862 117.127L218.325 304.623Z" fill="#9F616A"/>
<path d="M21.3665 55.8652L1.59814 57.7502C1.59814 57.7502 -8.75674 80.37 23.2492 82.255L21.3665 55.8652Z" fill="#9F616A"/>
<path d="M21.3665 90.7374L1.59814 92.6224C1.59814 92.6224 -8.75674 115.242 23.2492 117.127L21.3665 90.7374Z" fill="#9F616A"/>
<path d="M21.3665 128.437L1.59814 130.322C1.59814 130.322 -8.75674 152.942 23.2492 154.827L21.3665 128.437Z" fill="#9F616A"/>
<path d="M27.0147 166.137L7.24634 168.022C7.24634 168.022 -3.10855 190.641 28.8974 192.526L27.0147 166.137Z" fill="#9F616A"/>
<path d="M11.7424 64.9524H13.2424V23.8114C13.2424 20.6844 13.8576 17.5881 15.0527 14.6992C16.2479 11.8102 17.9997 9.18528 20.2081 6.97419C22.4165 4.7631 25.0383 3.00917 27.9237 1.81254C30.8091 0.615907 33.9017 2.39574e-06 37.0249 0H124.082C127.206 -6.38846e-06 130.298 0.615888 133.184 1.81251C136.069 3.00914 138.691 4.76307 140.899 6.97415C143.108 9.18523 144.859 11.8102 146.055 14.6991C147.25 17.588 147.865 20.6843 147.865 23.8113V249.514C147.865 252.641 147.25 255.738 146.055 258.627C144.859 261.516 143.108 264.141 140.899 266.352C138.691 268.563 136.069 270.317 133.184 271.513C130.298 272.71 127.206 273.326 124.082 273.326H37.025C30.7175 273.326 24.6683 270.817 20.2082 266.352C15.7481 261.886 13.2424 255.83 13.2424 249.515V94.2373H11.7424V64.9524Z" fill="#3F3D56"/>
<path d="M36.0655 6.19484H47.4293C46.9067 7.47763 46.7073 8.8694 46.8485 10.2476C46.9897 11.6257 47.4672 12.948 48.239 14.0978C49.0108 15.2477 50.0532 16.1898 51.2744 16.8413C52.4956 17.4928 53.858 17.8336 55.2418 17.8337H105.116C106.5 17.8336 107.862 17.4928 109.083 16.8413C110.304 16.1898 111.347 15.2477 112.119 14.0978C112.89 12.948 113.368 11.6257 113.509 10.2476C113.65 8.86939 113.451 7.47761 112.928 6.19482H123.542C128.253 6.19482 132.77 8.06827 136.101 11.403C139.432 14.7378 141.303 19.2607 141.303 23.9768V249.349C141.303 251.684 140.843 253.996 139.951 256.154C139.058 258.311 137.75 260.271 136.101 261.923C134.452 263.574 132.494 264.884 130.339 265.777C128.184 266.671 125.875 267.131 123.542 267.131H36.0655C33.7331 267.131 31.4236 266.671 29.2688 265.777C27.114 264.884 25.1561 263.574 23.5069 261.923C21.8577 260.271 20.5494 258.311 19.6569 256.154C18.7643 253.996 18.3049 251.684 18.3049 249.349V23.9768C18.3049 21.6417 18.7643 19.3294 19.6569 17.172C20.5494 15.0146 21.8577 13.0543 23.5069 11.4031C25.1561 9.75185 27.114 8.44204 29.2688 7.54841C31.4236 6.65478 33.7331 6.19484 36.0655 6.19484Z" fill="white"/>
<path d="M98.5454 69.3329H61.062V78.3889H98.5454V69.3329Z" fill="#EF8600"/>
<path d="M100.33 108.246H59.2776V117.302H100.33V108.246Z" fill="#E5E5E5"/>
<path d="M125.616 127.7H33.9912V136.756H125.616V127.7Z" fill="#E5E5E5"/>
<path d="M125.616 147.153H33.9912V156.209H125.616V147.153Z" fill="#E5E5E5"/>
<path d="M307 335.028L201.635 214.675L197.87 137.391L158.333 71.4163L147.037 43.1416C147.037 43.1416 120.679 45.9691 142.33 99.6911L151.273 128.437C143.212 145.821 139.035 164.756 139.035 183.922V249.793C139.035 265.304 212.86 349.79 221.453 362.696L307 335.028Z" fill="#9F616A"/>
<path opacity="0.2" d="M150.136 77.0068L157.996 73.1393L157.728 72.5933L150.466 76.1671L139.503 47.3901L138.936 47.6072L150.136 77.0068Z" fill="black"/>
<path opacity="0.2" d="M1.70337 57.464L1.49341 58.0347L13.137 62.329L13.347 61.7583L1.70337 57.464Z" fill="black"/>
<path opacity="0.2" d="M1.70337 92.7335L1.49341 93.3042L13.137 97.5985L13.347 97.0278L1.70337 92.7335Z" fill="black"/>
<path opacity="0.2" d="M1.70337 130.435L1.49341 131.006L13.137 135.3L13.347 134.73L1.70337 130.435Z" fill="black"/>
<path opacity="0.2" d="M7.80353 168.149L7.54077 168.697L13.2096 171.421L13.4723 170.873L7.80353 168.149Z" fill="black"/>
<path d="M79.8502 234.363C94.351 234.363 106.106 222.594 106.106 208.075C106.106 193.557 94.351 181.787 79.8502 181.787C65.3493 181.787 53.594 193.557 53.594 208.075C53.594 222.594 65.3493 234.363 79.8502 234.363Z" fill="#EF8600"/>
<path d="M77.348 219.172L69.49 209.055L74.0598 205.497L77.7805 210.287L90.351 197.001L94.5545 200.988L77.348 219.172Z" fill="white"/>
</g>
<defs>
<clipPath id="clip0_268_633">
<rect width="307" height="363" fill="white"/>
</clipPath>
</defs>
</svg>
