<svg width="315" height="408" viewBox="0 0 315 408" fill="none" xmlns="http://www.w3.org/2000/svg">
<g clip-path="url(#clip0_257_2)">
<path d="M315 263.332L258.598 222.233C258.598 222.233 226.29 167.435 220.814 132.363C215.339 97.2924 190.697 34.8221 190.697 34.8221V1.94299C190.697 1.94299 162.222 -9.01671 160.032 21.1225C157.842 51.2617 166.055 90.1686 166.055 90.1686C166.055 90.1686 174.269 139.487 155.651 152.091L87.75 263.332C87.75 263.332 152.913 323.062 203.839 330.734L315 408V263.332Z" fill="#FFB8B8"/>
<path d="M21.7653 105.786H19.9061C3.15477 105.786 -6.26139 125.577 4.7457 138.213C8.28842 142.281 13.6732 145.096 21.7653 145.241V105.786Z" fill="#FFB8B8"/>
<path d="M21.7653 145.241H19.9061C3.15477 145.241 -6.26139 165.032 4.7457 177.668C8.28842 181.736 13.6732 184.551 21.7653 184.696V145.241Z" fill="#FFB8B8"/>
<path d="M21.7653 184.696H19.9061C3.15477 184.696 -6.26139 204.487 4.7457 217.123C8.28842 221.191 13.6732 224.006 21.7653 224.151V184.696Z" fill="#FFB8B8"/>
<path d="M21.7653 224.151H19.9061C3.15477 224.151 -6.26139 243.942 4.7457 256.578C8.28842 260.646 13.6732 263.461 21.7653 263.606V224.151Z" fill="#FFB8B8"/>
<path d="M167.151 96.3656H165.521V51.6892C165.521 48.2935 164.853 44.9311 163.554 41.7939C162.256 38.6567 160.352 35.8062 157.953 33.4051C155.553 31.004 152.705 29.0994 149.57 27.7999C146.435 26.5005 143.075 25.8317 139.682 25.8317H45.0972C41.704 25.8317 38.344 26.5005 35.2091 27.7999C32.0742 29.0994 29.2257 31.004 26.8263 33.4051C24.427 35.8062 22.5237 38.6567 21.2252 41.7939C19.9266 44.9311 19.2583 48.2935 19.2583 51.6892V296.787C19.2583 300.183 19.9266 303.545 21.2252 306.683C22.5237 309.82 24.427 312.67 26.8263 315.071C29.2257 317.473 32.0742 319.377 35.2091 320.677C38.344 321.976 41.704 322.645 45.0972 322.645H139.682C143.075 322.645 146.435 321.976 149.57 320.677C152.705 319.377 155.553 317.473 157.953 315.071C160.352 312.67 162.256 309.82 163.554 306.683C164.853 303.545 165.521 300.183 165.521 296.787V128.167H167.151V96.3656Z" fill="#3F3D56"/>
<path d="M160.021 51.8699V296.606C160.017 299.468 159.379 302.294 158.154 304.881C156.929 307.467 155.147 309.75 152.935 311.566C152.446 311.967 151.936 312.342 151.407 312.689C148.244 314.799 144.526 315.922 140.724 315.917H45.684C44.1434 315.919 42.6081 315.735 41.1117 315.369C36.9118 314.344 33.1775 311.937 30.5075 308.535C27.8375 305.133 26.3864 300.932 26.387 296.606V51.8699C26.3874 46.7485 28.4207 41.8369 32.0395 38.2155C35.6583 34.5941 40.5663 32.5594 45.684 32.559H57.2163C56.6485 33.9518 56.4317 35.463 56.5851 36.9595C56.7385 38.4559 57.2574 39.8916 58.0959 41.1401C58.9345 42.3886 60.0671 43.4115 61.3938 44.1187C62.7205 44.8259 64.2007 45.1957 65.7039 45.1955H119.888C121.391 45.1939 122.87 44.823 124.196 44.1154C125.522 43.4078 126.654 42.3852 127.493 41.1374C128.331 39.8896 128.851 38.4548 129.006 36.9591C129.161 35.4633 128.946 33.9524 128.381 32.559H140.724C145.842 32.5594 150.75 34.5941 154.368 38.2155C157.987 41.8369 160.02 46.7485 160.021 51.8699V51.8699Z" fill="#F2CBD7"/>
<path d="M73.2593 216.985C73.2593 216.985 82.5886 242.919 75.3325 257.441C68.0763 271.964 86.7349 288.561 86.7349 288.561C86.7349 288.561 135.454 263.666 129.235 251.217C123.015 238.769 112.65 222.172 114.723 211.799L73.2593 216.985Z" fill="#FFB8B8"/>
<path d="M91.3995 226.84C109.719 226.84 124.57 211.978 124.57 193.646C124.57 175.313 109.719 160.451 91.3995 160.451C73.0798 160.451 58.2288 175.313 58.2288 193.646C58.2288 211.978 73.0798 226.84 91.3995 226.84Z" fill="#FFB8B8"/>
<path d="M155.892 310.125C155.02 311.239 154.029 312.253 152.935 313.15C152.446 313.551 151.936 313.926 151.407 314.274C148.346 316.312 144.678 316.953 140.724 316.953H56.7783L58.2295 276.632L67.5604 255.886C69.6552 257.53 71.897 258.977 74.2574 260.209C74.8159 260.511 75.4074 260.812 76.0261 261.108C84.7657 265.333 99.0523 269.048 112.901 258.702C117.26 255.447 121.575 250.795 125.665 244.329L151.522 258.998L152.88 274.89L155.892 310.125Z" fill="white"/>
<path d="M78.0085 240.361L76.7107 253.935L76.0262 261.108L75.0022 271.788L70.6269 317.501H45.6842C44.1436 317.504 42.6082 317.32 41.1118 316.953L31.2771 271.443L31.5618 271.257L78.0085 240.361Z" fill="#2F2E41"/>
<path d="M160.021 249.688V298.19C160.017 301.053 159.379 303.879 158.154 306.465C156.929 309.052 155.147 311.335 152.935 313.15C152.446 313.551 151.936 313.926 151.407 314.274C148.244 316.384 144.526 317.507 140.724 317.501H107.348C108.076 302.174 109.363 287.214 110.869 274.183C111.515 268.632 112.2 263.431 112.901 258.702C115.157 243.457 117.577 233.106 119.313 231.709L130.791 239.287L160.021 249.688Z" fill="#2F2E41"/>
<path d="M55.119 308.788L53.9253 317.501H45.684C44.1434 317.504 42.6081 317.32 41.1117 316.953C36.9118 315.928 33.1775 313.522 30.5075 310.119C27.8375 306.717 26.3864 302.516 26.387 298.19V296.437L30.242 271.443L31.5617 271.257L37.4976 270.407L55.119 308.788Z" fill="#2F2E41"/>
<path d="M160.021 256.012V298.19C160.017 301.053 159.379 303.879 158.154 306.465C156.929 309.052 155.147 311.335 152.935 313.15C152.446 313.551 151.936 313.926 151.407 314.274L146.337 292.19L152.88 274.89L160.021 256.012Z" fill="#2F2E41"/>
<path d="M123.031 163.623C118.015 155.472 110.164 149.465 100.988 146.759L94.2485 152.155L96.8687 145.861C94.6652 145.525 92.4351 145.396 90.2075 145.476L84.1437 153.278L86.6535 145.743C76.1756 147.08 66.2145 152.791 60.1764 161.504C52.4586 172.64 51.1563 188.127 58.7471 199.351C60.8309 192.943 63.3599 186.93 65.4437 180.521C65.9245 180.727 67.7466 180.714 70.381 180.545L72.9162 174.626L73.6244 180.295C81.4821 179.61 93.1371 178.106 100.587 176.728L99.8622 172.379L104.196 175.993C106.478 175.467 107.833 174.99 107.721 174.626C113.262 183.564 118.751 189.273 124.292 198.211C126.395 185.603 130.107 175.124 123.031 163.623Z" fill="#2F2E41"/>
<path d="M121.194 197.097C122.435 197.097 123.44 195.085 123.44 192.603C123.44 190.121 122.435 188.108 121.194 188.108C119.954 188.108 118.949 190.121 118.949 192.603C118.949 195.085 119.954 197.097 121.194 197.097Z" fill="#FFB8B8"/>
<path d="M194.256 309.911C217.09 309.911 235.599 268.448 235.599 217.301C235.599 166.154 217.09 124.692 194.256 124.692C171.423 124.692 152.913 166.154 152.913 217.301C152.913 268.448 171.423 309.911 194.256 309.911Z" fill="#FFB8B8"/>
<path opacity="0.2" d="M45.5641 101.676C43.3981 101.676 41.2806 101.033 39.4796 99.8292C37.6786 98.6249 36.2749 96.9133 35.446 94.9106C34.6171 92.908 34.4002 90.7044 34.8227 88.5784C35.2453 86.4524 36.2884 84.4996 37.82 82.9669C39.3517 81.4341 41.3031 80.3903 43.4275 79.9674C45.552 79.5445 47.754 79.7616 49.7552 80.5911C51.7564 81.4206 53.4668 82.8253 54.6702 84.6277C55.8736 86.43 56.5159 88.5489 56.5159 90.7165C56.5126 93.6222 55.3577 96.4079 53.3046 98.4626C51.2514 100.517 48.4677 101.673 45.5641 101.676V101.676ZM45.5641 80.8528C43.6147 80.8528 41.709 81.4313 40.0881 82.5152C38.4672 83.599 37.2038 85.1395 36.4578 86.9419C35.7118 88.7442 35.5166 90.7275 35.8969 92.6409C36.2772 94.5542 37.216 96.3118 38.5944 97.6913C39.9729 99.0707 41.7292 100.01 43.6412 100.391C45.5532 100.771 47.535 100.576 49.3361 99.8295C51.1372 99.0829 52.6766 97.8186 53.7596 96.1965C54.8427 94.5745 55.4208 92.6674 55.4208 90.7165C55.4178 88.1014 54.3784 85.5943 52.5306 83.7451C50.6827 81.8959 48.1774 80.8558 45.5641 80.8528V80.8528Z" fill="black"/>
<path opacity="0.2" d="M41.1833 89.6207C42.0906 89.6207 42.8261 88.8847 42.8261 87.9767C42.8261 87.0688 42.0906 86.3328 41.1833 86.3328C40.276 86.3328 39.5405 87.0688 39.5405 87.9767C39.5405 88.8847 40.276 89.6207 41.1833 89.6207Z" fill="black"/>
<path opacity="0.2" d="M49.3972 89.6207C50.3044 89.6207 51.0399 88.8847 51.0399 87.9767C51.0399 87.0688 50.3044 86.3328 49.3972 86.3328C48.4899 86.3328 47.7544 87.0688 47.7544 87.9767C47.7544 88.8847 48.4899 89.6207 49.3972 89.6207Z" fill="black"/>
<path opacity="0.2" d="M49.3972 94.5525H41.1833C41.0381 94.5525 40.8988 94.4948 40.7961 94.392C40.6934 94.2893 40.6357 94.1499 40.6357 94.0045C40.6357 93.8592 40.6934 93.7198 40.7961 93.617C40.8988 93.5143 41.0381 93.4565 41.1833 93.4565H49.3972C49.5424 93.4565 49.6817 93.5143 49.7844 93.617C49.8871 93.7198 49.9448 93.8592 49.9448 94.0045C49.9448 94.1499 49.8871 94.2893 49.7844 94.392C49.6817 94.4948 49.5424 94.5525 49.3972 94.5525V94.5525Z" fill="black"/>
<path opacity="0.2" d="M140.845 101.676C138.679 101.676 136.561 101.033 134.76 99.8292C132.959 98.6249 131.556 96.9133 130.727 94.9106C129.898 92.908 129.681 90.7044 130.104 88.5784C130.526 86.4524 131.569 84.4996 133.101 82.9669C134.632 81.4341 136.584 80.3903 138.708 79.9674C140.833 79.5445 143.035 79.7616 145.036 80.5911C147.037 81.4206 148.748 82.8253 149.951 84.6277C151.154 86.43 151.797 88.5489 151.797 90.7165C151.793 93.6222 150.639 96.408 148.585 98.4626C146.532 100.517 143.748 101.673 140.845 101.676V101.676ZM140.845 80.8528C138.895 80.8528 136.99 81.4313 135.369 82.5152C133.748 83.599 132.485 85.1395 131.739 86.9419C130.993 88.7442 130.797 90.7275 131.178 92.6409C131.558 94.5542 132.497 96.3118 133.875 97.6913C135.254 99.0707 137.01 100.01 138.922 100.391C140.834 100.771 142.816 100.576 144.617 99.8295C146.418 99.0829 147.957 97.8186 149.04 96.1965C150.123 94.5745 150.702 92.6674 150.702 90.7165C150.699 88.1014 149.659 85.5943 147.811 83.7451C145.963 81.896 143.458 80.8558 140.845 80.8528V80.8528Z" fill="black"/>
<path opacity="0.2" d="M136.464 89.6207C137.371 89.6207 138.107 88.8847 138.107 87.9767C138.107 87.0688 137.371 86.3328 136.464 86.3328C135.557 86.3328 134.821 87.0688 134.821 87.9767C134.821 88.8847 135.557 89.6207 136.464 89.6207Z" fill="black"/>
<path opacity="0.2" d="M144.678 89.6207C145.585 89.6207 146.321 88.8847 146.321 87.9767C146.321 87.0688 145.585 86.3328 144.678 86.3328C143.771 86.3328 143.035 87.0688 143.035 87.9767C143.035 88.8847 143.771 89.6207 144.678 89.6207Z" fill="black"/>
<path opacity="0.2" d="M144.678 95.6484C144.582 95.6484 144.488 95.6232 144.405 95.5754C143.258 94.8479 141.929 94.4616 140.571 94.4616C139.214 94.4616 137.884 94.8479 136.737 95.5754C136.675 95.6115 136.606 95.6349 136.535 95.6444C136.464 95.6538 136.391 95.6491 136.321 95.6304C136.252 95.6117 136.187 95.5795 136.13 95.5356C136.072 95.4917 136.025 95.437 135.989 95.3745C135.953 95.3121 135.929 95.2431 135.92 95.1717C135.911 95.1002 135.916 95.0276 135.935 94.958C135.953 94.8884 135.986 94.8233 136.03 94.7662C136.074 94.7092 136.128 94.6614 136.191 94.6255C137.505 93.8053 139.023 93.3705 140.571 93.3705C142.12 93.3705 143.637 93.8053 144.951 94.6255C145.056 94.6857 145.138 94.7789 145.184 94.8904C145.23 95.0019 145.238 95.1256 145.207 95.2423C145.176 95.3589 145.107 95.462 145.011 95.5354C144.916 95.6089 144.798 95.6486 144.678 95.6484V95.6484Z" fill="black"/>
<path d="M93.7521 112.968C89.3543 112.968 85.0553 111.663 81.3987 109.218C77.7421 106.773 74.8921 103.298 73.2092 99.2319C71.5262 95.166 71.0859 90.6919 71.9439 86.3756C72.8018 82.0592 74.9195 78.0944 78.0292 74.9824C81.1389 71.8705 85.1009 69.7512 89.4142 68.8927C93.7274 68.0341 98.1982 68.4747 102.261 70.1589C106.324 71.8431 109.797 74.6951 112.24 78.3543C114.683 82.0136 115.988 86.3157 115.988 90.7166C115.981 96.616 113.636 102.272 109.468 106.443C105.299 110.615 99.6472 112.961 93.7521 112.968ZM93.7521 70.6903C89.7941 70.6903 85.925 71.8648 82.6341 74.0653C79.3431 76.2658 76.7781 79.3935 75.2635 83.0529C73.7488 86.7122 73.3525 90.7388 74.1247 94.6236C74.8968 98.5083 76.8028 102.077 79.6015 104.877C82.4002 107.678 85.966 109.585 89.848 110.358C93.7299 111.131 97.7536 110.734 101.41 109.219C105.067 107.703 108.192 105.136 110.391 101.843C112.59 98.5494 113.764 94.6775 113.764 90.7166C113.758 85.4071 111.648 80.3168 107.896 76.5624C104.144 72.8081 99.0578 70.6962 93.7521 70.6903V70.6903Z" fill="white"/>
<path d="M84.8578 88.4915C86.6998 88.4915 88.1931 86.9971 88.1931 85.1538C88.1931 83.3104 86.6998 81.816 84.8578 81.816C83.0157 81.816 81.5225 83.3104 81.5225 85.1538C81.5225 86.9971 83.0157 88.4915 84.8578 88.4915Z" fill="white"/>
<path d="M101.535 88.4915C103.377 88.4915 104.87 86.9971 104.87 85.1538C104.87 83.3104 103.377 81.816 101.535 81.816C99.6925 81.816 98.1992 83.3104 98.1992 85.1538C98.1992 86.9971 99.6925 88.4915 101.535 88.4915Z" fill="white"/>
<path d="M93.7641 101.58C90.7735 101.58 87.6032 100.495 84.2532 98.3253C84.0063 98.1646 83.8331 97.9124 83.7719 97.6241C83.7106 97.3358 83.7662 97.0349 83.9265 96.7876C84.0867 96.5402 84.3385 96.3667 84.6266 96.305C84.9146 96.2433 85.2153 96.2986 85.4627 96.4587C91.3554 100.282 96.3763 100.309 100.816 96.5434C101.041 96.3531 101.332 96.2599 101.626 96.2843C101.919 96.3087 102.191 96.4487 102.381 96.6736C102.572 96.8985 102.665 97.1898 102.641 97.4836C102.617 97.7774 102.478 98.0497 102.253 98.2406C99.6302 100.467 96.7927 101.58 93.7641 101.58Z" fill="white"/>
<path d="M130.441 127.431H115.988V125.207H128.217V112.968H130.441V127.431Z" fill="white"/>
<path d="M59.2871 68.4649H57.0635V54.0013H71.5166V56.2265H59.2871V68.4649Z" fill="white"/>
</g>
<defs>
<clipPath id="clip0_257_2">
<rect width="315" height="408" fill="white"/>
</clipPath>
</defs>
</svg>
