<svg width="383" height="277" viewBox="0 0 383 277" fill="none" xmlns="http://www.w3.org/2000/svg">
<g clip-path="url(#clip0_25_239)">
<path d="M77.2506 170.06C76.5888 170.091 75.9337 169.917 75.374 169.562C74.8142 169.207 74.377 168.688 74.1214 168.076C73.8659 167.464 73.8043 166.788 73.9452 166.139C74.0861 165.491 74.4226 164.902 74.909 164.451C74.9905 164.127 75.0489 163.894 75.1304 163.57C75.1013 163.499 75.0719 163.428 75.0424 163.358C72.0679 156.254 61.9868 156.303 59.0376 163.418C56.4199 169.732 53.0872 176.058 52.2666 182.735C51.9052 185.686 52.0576 188.678 52.7172 191.577C46.569 178.144 43.3764 163.543 43.3559 148.766C43.3546 145.058 43.5603 141.352 43.972 137.667C44.3123 134.646 44.7843 131.646 45.3882 128.668C48.6835 112.509 55.7586 97.3636 66.0326 84.4753C71.0052 81.7577 75.0266 77.5787 77.5549 72.5014C78.4708 70.6763 79.1182 68.728 79.4768 66.7171C78.9159 66.7908 78.3458 66.8369 77.7849 66.8737C77.6101 66.8829 77.4262 66.892 77.2514 66.9013L77.1856 66.9043C76.5691 66.932 75.9577 66.7806 75.4251 66.4684C74.8925 66.1562 74.4614 65.6964 74.1836 65.1445C73.9058 64.5925 73.7932 63.9719 73.8594 63.3574C73.9255 62.7428 74.1676 62.1605 74.5565 61.6806C74.7987 61.3821 75.0411 61.0837 75.2836 60.7854C75.6514 60.3249 76.0284 59.8735 76.3962 59.4131C76.4387 59.3693 76.4786 59.3232 76.5158 59.2748C76.9389 58.7498 77.3618 58.234 77.7849 57.709C77.0127 56.5086 75.9742 55.5031 74.7502 54.7709C70.511 52.284 64.6625 54.0064 61.6002 57.8472C58.5289 61.688 57.9496 67.0763 59.0162 71.8751C59.9267 75.983 61.9129 79.7502 64.1475 83.3331C63.9176 83.6278 63.6785 83.9134 63.4486 84.2082C59.2461 89.6208 55.5833 95.4329 52.5128 101.561C53.3815 94.7643 52.0989 86.576 49.9124 81.2976C47.4234 75.2835 42.7583 70.2184 38.65 65.0192C33.7153 58.7742 23.5962 61.4997 22.7269 69.4162C22.7184 69.4928 22.7102 69.5695 22.7022 69.6461C23.3124 69.9909 23.9098 70.3569 24.4942 70.744C25.2284 71.2353 25.7973 71.9374 26.1264 72.7581C26.4554 73.5788 26.5293 74.48 26.3383 75.3435C26.1473 76.207 25.7003 76.9925 25.056 77.5972C24.4116 78.202 23.5999 78.5976 22.7272 78.7324L22.6379 78.7462C22.8552 80.949 23.2395 83.1321 23.7873 85.2766C25.3746 91.2633 28.1797 96.857 32.0265 101.707C35.8733 106.557 40.6789 110.559 46.1421 113.461C46.5008 113.645 46.8503 113.83 47.2089 114.005C44.124 122.761 42.1889 131.883 41.4524 141.139C41.0354 146.6 41.06 152.086 41.526 157.543C41.5167 157.479 41.5075 157.414 41.4983 157.35C40.3212 151.282 37.0893 145.806 32.3485 141.848C25.3073 136.055 15.3593 133.922 7.76299 129.265C4.10635 127.023 -0.579361 129.92 0.0588218 134.166C0.0690163 134.234 0.079369 134.302 0.0898864 134.369C1.22227 134.831 2.32482 135.364 3.39113 135.963C4.00134 136.308 4.59867 136.674 5.18311 137.061C5.91731 137.552 6.48621 138.254 6.81526 139.075C7.14432 139.896 7.21819 140.797 7.02719 141.66C6.8362 142.524 6.38924 143.309 5.74489 143.914C5.10054 144.519 4.28884 144.914 3.41614 145.049L3.32671 145.063C3.26236 145.072 3.20716 145.081 3.14289 145.091C5.07771 149.718 7.7933 153.977 11.1707 157.682C15.343 162.166 20.3857 165.749 25.9897 168.212C31.5937 170.675 37.6409 171.965 43.7605 172.004H43.7697C45.4309 179.235 47.8378 186.273 50.9516 193.005H76.6077C76.6998 192.719 76.7825 192.424 76.8653 192.139C74.4905 192.288 72.1064 192.146 69.7661 191.715C71.6696 189.376 73.5731 187.018 75.4767 184.678C75.5191 184.634 75.559 184.588 75.5962 184.54C76.5618 183.343 77.5365 182.154 78.5021 180.957L78.5026 180.956C78.554 177.285 78.1336 173.624 77.2514 170.061L77.2506 170.06Z" fill="#F2F2F2"/>
<path d="M382.393 193.982L0.735458 194.139C0.574492 194.139 0.420122 194.075 0.306302 193.961C0.192482 193.847 0.12854 193.692 0.12854 193.531C0.12854 193.369 0.192482 193.215 0.306302 193.101C0.420122 192.987 0.574492 192.923 0.735458 192.923L382.393 192.766C382.554 192.766 382.708 192.83 382.822 192.944C382.936 193.058 383 193.213 383 193.374C383 193.535 382.936 193.69 382.822 193.804C382.708 193.918 382.554 193.982 382.393 193.982Z" fill="#CACACA"/>
<path d="M323.579 193.597C306.201 194.333 296.375 193.797 283.707 182.783C275.082 182.553 268.226 176.306 268.424 168.856C268.622 161.407 275.8 155.533 284.424 155.763L315.741 157.25C324.366 157.48 340.406 156.949 340.208 164.398C340.111 168.056 340.109 172.799 339.77 177.767C339.491 181.94 337.685 185.862 334.697 188.783C331.71 191.704 327.751 193.418 323.579 193.597Z" fill="#2F2E41"/>
<path d="M267.761 263.329L258.789 264.798L248.864 230.832L262.107 228.664L267.761 263.329Z" fill="#FFB6B6"/>
<path d="M264.196 192.504C280.925 196.624 293.278 191.984 303.452 192.586C309.236 182.811 327.697 170.395 317.624 165.169C312.015 162.258 254.989 155.549 247.503 163.292C228.253 183.204 252.153 246.086 252.153 246.086L265.447 245.915L269.694 239.843L266.273 233.225L269.509 227.815L265.805 222.241L264.196 192.504Z" fill="#2F2E41"/>
<path d="M273.933 270.116L268.054 271.692L265.519 266.415L264.318 272.695L248.727 276.876C247.98 277.076 247.188 277.032 246.467 276.75C245.747 276.468 245.135 275.963 244.722 275.308C244.308 274.653 244.115 273.882 244.169 273.109C244.224 272.336 244.524 271.601 245.025 271.011L255.173 259.059L253.67 253.439L266.975 250.71L273.933 270.116Z" fill="#2F2E41"/>
<path d="M341.292 252.259L334.743 258.576L307.3 236.284L316.965 226.961L341.292 252.259Z" fill="#FFB6B6"/>
<path d="M288.504 182.026C303.839 187.942 317.251 181.363 330.502 173.736C329.712 162.401 329.27 146.057 318.017 147.494C311.75 148.293 259.954 156.866 258.191 167.5C253.655 194.842 318.665 246.961 318.665 246.961L329.503 239.25L329.551 231.836L322.981 228.34L322.572 222.047L316.362 219.57L288.504 182.026Z" fill="#2F2E41"/>
<path d="M350.221 254.328L346.28 258.972L341.198 256.074L343.774 261.924L333.321 274.242C332.82 274.832 332.144 275.247 331.391 275.425C330.638 275.603 329.848 275.536 329.136 275.232C328.424 274.929 327.828 274.406 327.434 273.739C327.04 273.072 326.869 272.296 326.947 271.525L328.512 255.914L324.086 252.146L333.483 242.325L350.221 254.328Z" fill="#2F2E41"/>
<path d="M280.418 159.474C279.338 159.474 278.725 159.262 278.487 158.807C278.138 158.139 275.912 157.267 276.613 156.257C277.101 155.552 278.28 154.609 277.827 154.067C276.078 151.975 271.712 91.9816 270.683 83.7971C270.43 81.2638 270.773 78.7065 271.684 76.3298C274.566 68.1507 278.5 65.6369 286.337 60.6299C286.973 60.2233 287.636 59.7987 288.325 59.3561C289.216 58.7826 289.166 60.1219 289.114 58.1084C289.055 55.8705 288.995 53.5563 290.089 52.1098L290.161 52.0155L290.275 51.9888C292.923 51.3758 301.827 50.2377 307.1 51.997L307.173 52.0219L307.227 52.076C308.48 53.3307 308.594 55.761 308.705 58.1109C308.795 60.0404 308.88 58.6214 309.589 59.4128C312.298 62.4373 316.38 64.1848 319.784 65.1762C321.918 65.7901 323.787 67.0997 325.094 68.8974C326.401 70.6952 327.072 72.8783 327 75.1011C326.631 86.2978 326.921 104.002 325.013 116.479C321.838 137.244 350.829 167.232 334.224 167.848C334.266 167.913 334.29 167.989 334.292 168.066C334.294 168.144 334.275 168.221 334.237 168.289C333.052 170.507 284.49 159.474 280.418 159.474Z" fill="#E6E6E6"/>
<path d="M297.224 50.322C308.156 50.322 317.018 41.4457 317.018 30.4962C317.018 19.5467 308.156 10.6704 297.224 10.6704C286.292 10.6704 277.43 19.5467 277.43 30.4962C277.43 41.4457 286.292 50.322 297.224 50.322Z" fill="#2F2E41"/>
<path d="M298.817 51.9584C306.67 51.7355 312.856 45.1784 312.634 37.3127C312.411 29.447 305.865 23.2513 298.012 23.4741C290.159 23.697 283.973 30.2541 284.195 38.1198C284.418 45.9855 290.964 52.1812 298.817 51.9584Z" fill="#FFB6B6"/>
<path d="M298.552 15.9875L292.786 16.1512C289.152 16.2572 285.708 17.803 283.211 20.4493C280.714 23.0956 279.367 26.6261 279.465 30.2661L279.469 30.394L279.574 30.46C282.708 32.5371 286.408 33.5914 290.164 33.478L290.488 33.4688L293.675 33.3242C294.21 31.9419 294.39 30.4466 294.196 28.9766C294.677 30.3701 295.052 31.7979 295.319 33.248L309.615 32.5961C310.447 32.5548 311.23 32.1896 311.797 31.5784C312.363 30.9671 312.669 30.1583 312.649 29.3243C312.542 25.6846 310.997 22.2361 308.354 19.7357C305.711 17.2353 302.186 15.8873 298.552 15.9875Z" fill="#2F2E41"/>
<path d="M287.061 12.4124C285.76 14.02 283.67 14.6899 281.792 15.5605C278.479 17.1298 275.598 19.4849 273.399 22.4215C271.201 25.3582 269.75 28.7877 269.174 32.4128C268.731 35.3647 268.886 38.4032 268.137 41.29C267.393 44.1766 265.429 47.0438 262.511 47.6239C260.536 48.0197 258.525 47.3087 256.637 46.604C255.599 46.2199 254.561 45.8341 253.522 45.4467C254.517 42.7253 255.51 40.0038 256.501 37.2825C254.857 39.8708 252.928 42.2659 250.75 44.4225C247.029 43.0411 243.305 41.6599 239.578 40.2787C248.646 40.0558 246.849 31.2837 248.627 22.3806C249.605 17.4883 259.006 13.9275 260.737 9.2502C261.672 6.71335 263.313 4.49788 265.466 2.86599C267.618 1.23411 270.193 0.254123 272.884 0.0420214C275.576 -0.17008 278.272 0.394586 280.653 1.66918C283.034 2.94378 285 4.87494 286.32 7.23413C288.203 7.92418 288.339 10.8253 287.061 12.4124Z" fill="#2F2E41"/>
<path d="M287.968 18.3085C292.039 18.3085 295.339 15.0033 295.339 10.9261C295.339 6.84883 292.039 3.54358 287.968 3.54358C283.897 3.54358 280.598 6.84883 280.598 10.9261C280.598 15.0033 283.897 18.3085 287.968 18.3085Z" fill="#2F2E41"/>
<path d="M314.149 124.83H280.122C278.957 124.829 277.84 124.365 277.016 123.539C276.192 122.714 275.729 121.595 275.727 120.428V83.793C275.729 82.6259 276.192 81.507 277.016 80.6817C277.84 79.8565 278.957 79.3923 280.122 79.391H314.149C315.315 79.3923 316.432 79.8565 317.256 80.6817C318.08 81.507 318.543 82.6259 318.544 83.793V120.428C318.543 121.595 318.08 122.714 317.256 123.539C316.432 124.365 315.315 124.829 314.149 124.83Z" fill="#3F3D56"/>
<path d="M281.079 87.3045C282.487 87.3045 283.628 86.1616 283.628 84.7517C283.628 83.3419 282.487 82.199 281.079 82.199C279.672 82.199 278.531 83.3419 278.531 84.7517C278.531 86.1616 279.672 87.3045 281.079 87.3045Z" fill="#E6E6E6"/>
<path d="M281.079 86.2834C281.924 86.2834 282.609 85.5977 282.609 84.7518C282.609 83.9058 281.924 83.2201 281.079 83.2201C280.235 83.2201 279.55 83.9058 279.55 84.7518C279.55 85.5977 280.235 86.2834 281.079 86.2834Z" fill="#3F3D56"/>
<path d="M291.767 123.051L268.395 117.115L264.762 129.16C264.762 129.16 289.907 131.025 290.847 131.034C291.55 132.03 292.538 132.789 293.681 133.211C294.824 133.632 296.067 133.696 297.247 133.394C298.427 133.092 299.488 132.439 300.289 131.52C301.09 130.601 301.594 129.46 301.734 128.249C301.873 127.037 301.642 125.811 301.072 124.733C300.501 123.656 299.617 122.777 298.536 122.214C297.456 121.651 296.231 121.429 295.022 121.579C293.813 121.728 292.678 122.242 291.767 123.051V123.051Z" fill="#FFB6B6"/>
<path d="M276.17 68.4285C259.505 77.3481 252.202 97.2323 241.978 114.707C241.766 116.616 241.955 118.549 242.532 120.381C243.109 122.213 244.061 123.904 245.328 125.346C246.595 126.789 248.148 127.95 249.888 128.757C251.628 129.564 253.518 129.999 255.435 130.032L275.437 130.494L272.93 118.132L266.24 114.325L274.148 95.1644L276.17 68.4285Z" fill="#E6E6E6"/>
<path d="M300.873 87.7404L316.825 107.129L310.237 117.585C310.237 117.585 294.198 92.4684 293.836 91.5995C292.65 91.3224 291.576 90.6911 290.756 89.7893C289.936 88.8875 289.408 87.7575 289.243 86.5489C289.078 85.3402 289.283 84.1099 289.832 83.0207C290.38 81.9314 291.245 81.0345 292.314 80.4487C293.382 79.8628 294.603 79.6156 295.814 79.7398C297.026 79.8639 298.171 80.3535 299.099 81.1439C300.027 81.9342 300.693 82.988 301.01 84.1659C301.326 85.3438 301.279 86.5903 300.873 87.7404V87.7404Z" fill="#FFB6B6"/>
<path d="M324.916 68.9247C329.731 66.2596 343.775 107.36 328.996 130.736C327.31 131.651 325.452 132.203 323.54 132.357C321.628 132.512 319.706 132.265 317.895 131.632C316.084 131 314.424 129.996 313.023 128.685C311.621 127.374 310.508 125.784 309.755 124.017L302.105 105.264L314.363 101.35L320.216 108.078L319.402 94.6929L326.369 75.6688L324.916 68.9247Z" fill="#E6E6E6"/>
<path d="M165.358 48.4685C178.016 48.4685 188.278 38.1899 188.278 25.5106C188.278 12.8313 178.016 2.55273 165.358 2.55273C152.699 2.55273 142.437 12.8313 142.437 25.5106C142.437 38.1899 152.699 48.4685 165.358 48.4685Z" fill="#F2CBD7"/>
<path d="M175.603 21.4476H155.112C154.252 21.4476 153.427 21.7898 152.819 22.399C152.211 23.0081 151.869 23.8343 151.869 24.6958V45.2203C151.869 46.0818 152.211 46.908 152.819 47.5171C153.427 48.1263 154.252 48.4685 155.112 48.4685H175.603C176.463 48.4685 177.288 48.1263 177.896 47.5171C178.505 46.908 178.846 46.0818 178.846 45.2203V24.6958C178.846 23.8343 178.505 23.0081 177.896 22.399C177.288 21.7898 176.463 21.4476 175.603 21.4476ZM165.358 42.1636C163.935 42.1636 162.544 41.741 161.361 40.9493C160.178 40.1575 159.256 39.0322 158.711 37.7155C158.167 36.3989 158.024 34.9501 158.302 33.5523C158.58 32.1546 159.265 30.8707 160.271 29.863C161.277 28.8552 162.559 28.169 163.954 27.8909C165.35 27.6129 166.796 27.7556 168.111 28.301C169.425 28.8464 170.549 29.7699 171.339 30.9549C172.13 32.1398 172.552 33.5329 172.552 34.9581C172.552 36.8691 171.794 38.7019 170.445 40.0532C169.095 41.4045 167.266 42.1636 165.358 42.1636ZM173.451 27.7525C173.095 27.7525 172.747 27.6468 172.452 27.4489C172.156 27.251 171.925 26.9696 171.789 26.6405C171.653 26.3113 171.618 25.9491 171.687 25.5997C171.756 25.2502 171.928 24.9293 172.179 24.6773C172.431 24.4254 172.751 24.2538 173.1 24.1843C173.449 24.1148 173.81 24.1505 174.139 24.2868C174.468 24.4232 174.749 24.6541 174.946 24.9503C175.144 25.2466 175.249 25.5948 175.249 25.9511C175.249 26.4289 175.06 26.8871 174.723 27.2249C174.385 27.5627 173.928 27.7525 173.451 27.7525Z" fill="white"/>
<path d="M172.525 179.96C185.183 179.96 195.445 169.682 195.445 157.002C195.445 144.323 185.183 134.044 172.525 134.044C159.866 134.044 149.604 144.323 149.604 157.002C149.604 169.682 159.866 179.96 172.525 179.96Z" fill="#F2CBD7"/>
<path d="M166.627 179.96C162.858 179.963 159.17 178.868 156.011 176.809L154.422 175.774L156.306 175.983C156.8 176.038 157.331 176.07 157.886 176.078C160.426 176.08 162.912 175.348 165.047 173.97C163.778 173.695 162.603 173.093 161.639 172.223C160.674 171.353 159.952 170.246 159.546 169.012L159.31 168.283L160.06 168.431C160.4 168.498 160.746 168.537 161.093 168.547C159.905 167.935 158.907 167.006 158.21 165.864C157.512 164.722 157.141 163.41 157.138 162.071V161.299L157.809 161.596C158.206 161.82 158.627 162 159.064 162.131C158.031 160.969 157.389 159.511 157.23 157.963C157.071 156.415 157.403 154.856 158.178 153.508L158.506 152.942L158.917 153.45C161.91 157.16 166.2 159.592 170.916 160.253C171.045 160.272 171.177 160.262 171.302 160.224C171.428 160.187 171.543 160.123 171.641 160.036C171.742 159.949 171.822 159.841 171.877 159.72C171.932 159.599 171.961 159.467 171.961 159.334C171.95 157.895 172.367 156.484 173.159 155.283C173.951 154.082 175.083 153.144 176.409 152.589C177.736 152.034 179.197 151.888 180.607 152.168C182.017 152.448 183.312 153.143 184.326 154.163C185.714 153.859 187.045 153.336 188.268 152.612L189.3 152L188.924 153.141C188.576 154.199 187.991 155.164 187.214 155.962C187.903 155.782 188.577 155.548 189.229 155.261L190.627 154.646L189.785 155.922C188.892 157.276 187.777 158.469 186.486 159.45V160.101C186.486 169.863 179.073 179.96 166.667 179.96H166.627Z" fill="white"/>
<path d="M118.969 114.214C131.628 114.214 141.89 103.936 141.89 91.2565C141.89 78.5772 131.628 68.2986 118.969 68.2986C106.311 68.2986 96.0488 78.5772 96.0488 91.2565C96.0488 103.936 106.311 114.214 118.969 114.214Z" fill="#F2CBD7"/>
<path d="M129.215 87.1935H108.724C107.864 87.1935 107.039 87.5357 106.431 88.1448C105.823 88.754 105.481 89.5802 105.481 90.4416V110.966C105.481 111.828 105.823 112.654 106.431 113.263C107.039 113.872 107.864 114.214 108.724 114.214H129.215C130.075 114.214 130.9 113.872 131.508 113.263C132.116 112.654 132.458 111.828 132.458 110.966V90.4416C132.458 89.5801 132.116 88.754 131.508 88.1448C130.9 87.5357 130.075 87.1935 129.215 87.1935ZM125.367 94.1228H123.018C121.413 94.1228 121.101 94.8837 121.101 96.0072V98.3893H124.927L124.43 102.13H121.094V111.883C119.667 112.151 118.203 112.147 116.777 111.872V102.13H113.717V98.3893H116.834V95.6233C116.834 92.3166 119.127 90.5106 122.08 90.5106C123.5 90.5106 125.02 90.6173 125.367 90.667L125.367 94.1228Z" fill="white"/>
</g>
<defs>
<clipPath id="clip0_25_239">
<rect width="383" height="277" fill="white"/>
</clipPath>
</defs>
</svg>
